<svg width="31" height="30" viewBox="0 0 31 30" fill="none" xmlns="http://www.w3.org/2000/svg">
<path d="M21.0796 0H9.82959C4.65271 0 0.45459 4.19812 0.45459 9.375V20.625C0.45459 25.8019 4.65271 30 9.82959 30H21.0796C26.2565 30 30.4546 25.8019 30.4546 20.625V9.375C30.4546 4.19812 26.2565 0 21.0796 0ZM27.6421 20.625C27.6421 24.2438 24.6983 27.1875 21.0796 27.1875H9.82959C6.21084 27.1875 3.26709 24.2438 3.26709 20.625V9.375C3.26709 5.75625 6.21084 2.8125 9.82959 2.8125H21.0796C24.6983 2.8125 27.6421 5.75625 27.6421 9.375V20.625Z" fill="#FF7231"/>
<path d="M15.4546 7.5C11.3127 7.5 7.95459 10.8581 7.95459 15C7.95459 19.1419 11.3127 22.5 15.4546 22.5C19.5965 22.5 22.9546 19.1419 22.9546 15C22.9546 10.8581 19.5965 7.5 15.4546 7.5ZM15.4546 19.6875C12.8708 19.6875 10.7671 17.5838 10.7671 15C10.7671 12.4144 12.8708 10.3125 15.4546 10.3125C18.0383 10.3125 20.1421 12.4144 20.1421 15C20.1421 17.5838 18.0383 19.6875 15.4546 19.6875Z" fill="#FF7231"/>
<path d="M23.5171 7.93687C24.0691 7.93687 24.5165 7.48943 24.5165 6.93749C24.5165 6.38555 24.0691 5.93812 23.5171 5.93812C22.9652 5.93812 22.5178 6.38555 22.5178 6.93749C22.5178 7.48943 22.9652 7.93687 23.5171 7.93687Z" fill="#FF7231"/>
</svg>
