<svg width="40" height="23" viewBox="0 0 40 23" fill="none" xmlns="http://www.w3.org/2000/svg">
<path d="M39.6435 20.5146C39.536 20.3331 38.8709 18.8768 35.6707 15.8836C32.3204 12.7492 32.7705 13.2582 36.8058 7.8386C39.2634 4.53796 40.246 2.5223 39.9385 1.66061C39.646 0.83923 37.8383 1.05591 37.8383 1.05591L31.8279 1.09119C31.8279 1.09119 31.3829 1.03072 31.0503 1.22976C30.7278 1.42629 30.5203 1.87981 30.5203 1.87981C30.5203 1.87981 29.5677 4.43466 28.2976 6.60653C25.6199 11.1896 24.5474 11.4315 24.1098 11.1468C23.0923 10.4841 23.3473 8.48109 23.3473 7.06005C23.3473 2.61805 24.0148 0.766163 22.0447 0.287444C21.3896 0.128711 20.9096 0.0228896 19.237 0.00525258C17.0918 -0.0174235 15.2742 0.0128113 14.2466 0.519245C13.5616 0.856867 13.034 1.61022 13.3565 1.65305C13.7541 1.70596 14.6541 1.89745 15.1317 2.55254C15.7492 3.39659 15.7267 5.29635 15.7267 5.29635C15.7267 5.29635 16.0817 10.5245 14.8992 11.1745C14.0866 11.6205 12.974 10.7109 10.5863 6.5511C9.36374 4.42206 8.43868 2.06626 8.43868 2.06626C8.43868 2.06626 8.26116 1.62786 7.94364 1.39354C7.55861 1.10882 7.01857 1.01812 7.01857 1.01812L1.30315 1.05339C1.30315 1.05339 0.445591 1.07859 0.130568 1.45401C-0.149453 1.78911 0.108066 2.47947 0.108066 2.47947C0.108066 2.47947 4.58339 13.0289 9.64877 18.3477C14.2966 23.2231 19.572 22.9031 19.572 22.9031H21.9622C21.9622 22.9031 22.6847 22.8225 23.0522 22.4219C23.3923 22.054 23.3798 21.3636 23.3798 21.3636C23.3798 21.3636 23.3323 18.131 24.8224 17.6548C26.29 17.1862 28.1751 20.7791 30.1728 22.1623C31.6829 23.208 32.8305 22.9787 32.8305 22.9787L38.1734 22.9031C38.1734 22.9031 40.9686 22.7293 39.6435 20.5146Z" fill="#FF7231"/>
</svg>
