<svg width="34" height="23" viewBox="0 0 34 23" fill="none" xmlns="http://www.w3.org/2000/svg">
<path d="M32.0327 2.21636C31.1253 0.602182 30.1405 0.305273 28.1353 0.192364C26.1322 0.0564546 21.0952 0 16.7315 0C12.3594 0 7.32027 0.0564547 5.31927 0.190273C3.31827 0.305273 2.33136 0.600091 1.41555 2.21636C0.480909 3.82845 0 6.60518 0 11.4937C0 11.4979 0 11.5 0 11.5C0 11.5042 0 11.5063 0 11.5063V11.5105C0 16.3781 0.480909 19.1757 1.41555 20.7711C2.33136 22.3853 3.31618 22.678 5.31718 22.8139C7.32027 22.931 12.3594 23 16.7315 23C21.0952 23 26.1322 22.931 28.1374 22.816C30.1425 22.6801 31.1274 22.3874 32.0348 20.7732C32.9778 19.1778 33.4545 16.3802 33.4545 11.5125C33.4545 11.5125 33.4545 11.5063 33.4545 11.5021C33.4545 11.5021 33.4545 11.4979 33.4545 11.4958C33.4545 6.60518 32.9778 3.82845 32.0327 2.21636ZM12.5455 17.7727V5.22727L23 11.5L12.5455 17.7727Z" fill="#FF7231"/>
</svg>
