<svg width="19" height="37" viewBox="0 0 19 37" fill="none" xmlns="http://www.w3.org/2000/svg">
<path d="M17.17 1.7H18.17V0.699998H17.17V1.7ZM17.17 36V37H18.17V36H17.17ZM10.065 36H9.065V37H10.065V36ZM10.065 7.58H11.065V6.58H10.065V7.58ZM9.575 7.58V6.58H9.32156L9.09872 6.70071L9.575 7.58ZM3.695 10.765L2.87281 11.3342L3.38306 12.0712L4.17128 11.6443L3.695 10.765ZM1.49 7.58L0.913317 6.76303L0.103765 7.33448L0.667808 8.14921L1.49 7.58ZM9.82 1.7V0.699998H9.50261L9.24332 0.88303L9.82 1.7ZM16.17 1.7V36H18.17V1.7H16.17ZM17.17 35H10.065V37H17.17V35ZM11.065 36V7.58H9.065V36H11.065ZM10.065 6.58H9.575V8.58H10.065V6.58ZM9.09872 6.70071L3.21872 9.88571L4.17128 11.6443L10.0513 8.45929L9.09872 6.70071ZM4.51719 10.1958L2.31219 7.01079L0.667808 8.14921L2.87281 11.3342L4.51719 10.1958ZM2.06668 8.39697L10.3967 2.51697L9.24332 0.88303L0.913317 6.76303L2.06668 8.39697ZM9.82 2.7H17.17V0.699998H9.82V2.7Z" fill="#FF7231"/>
</svg>
