<svg width="34" height="38" viewBox="0 0 34 38" fill="none" xmlns="http://www.w3.org/2000/svg">
<path d="M19.6 19.605L19.0353 18.7797L19.0137 18.7945L18.993 18.8103L19.6 19.605ZM22.834 16.518L22.039 15.9113L22.0366 15.9146L22.834 16.518ZM22.246 7.257L22.9258 6.52357L22.246 7.257ZM9.457 6.424L9.76857 7.37427L9.77781 7.37114L9.457 6.424ZM3.675 9.805L2.875 10.405L3.51633 11.2601L4.32689 10.5633L3.675 9.805ZM1.47 6.865L0.818114 6.10668L0.108668 6.71656L0.67 7.465L1.47 6.865ZM8.036 3.092L7.69813 2.1508L7.69426 2.15221L8.036 3.092ZM28.077 4.562L27.4838 5.36705L27.4957 5.3758L27.5078 5.38419L28.077 4.562ZM30.919 7.747L30.0245 8.19424L30.0294 8.2038L30.919 7.747ZM31.213 15.734L32.1505 16.0822L32.1536 16.0736L31.213 15.734ZM29.498 18.87L28.7013 18.2656L28.6946 18.2745L28.6881 18.2835L29.498 18.87ZM27.097 21.467L27.7478 22.2263V22.2263L27.097 21.467ZM24.255 23.77L24.8625 24.5644L24.8634 24.5636L24.255 23.77ZM11.76 33.325L11.1526 32.5306L8.80608 34.325H11.76V33.325ZM32.34 33.325H33.34V32.325H32.34V33.325ZM32.34 37V38H33.34V37H32.34ZM1.96 37H0.96V38H1.96V37ZM1.96 33.08L1.35296 32.2853L0.96 32.5855V33.08H1.96ZM20.1647 20.4303C21.4958 19.5196 22.6522 18.4155 23.6314 17.1214L22.0366 15.9146C21.1865 17.0379 20.1869 17.9918 19.0353 18.7797L20.1647 20.4303ZM23.629 17.1247C24.7128 15.7044 25.255 14.069 25.255 12.255H23.255C23.255 13.6424 22.8498 14.8489 22.039 15.9113L23.629 17.1247ZM25.255 12.255C25.255 9.93027 24.4997 7.98231 22.9258 6.52357L21.5662 7.99043C22.671 9.01435 23.255 10.3984 23.255 12.255H25.255ZM22.9258 6.52357C21.3292 5.04384 19.0135 4.395 16.17 4.395V6.395C18.7491 6.395 20.4841 6.98749 21.5662 7.99043L22.9258 6.52357ZM16.17 4.395C13.6265 4.395 11.2787 4.75117 9.13619 5.47686L9.77781 7.37114C11.686 6.72483 13.8135 6.395 16.17 6.395V4.395ZM9.14545 5.47377C7.00836 6.17445 4.96803 7.37473 3.02311 9.04668L4.32689 10.5633C6.10597 9.03393 7.9203 7.98021 9.76855 7.37423L9.14545 5.47377ZM4.475 9.205L2.27 6.265L0.67 7.465L2.875 10.405L4.475 9.205ZM2.12189 7.62332C3.8844 6.10817 5.96566 4.90891 8.37774 4.03179L7.69426 2.15221C5.07567 3.10442 2.7796 4.42049 0.818114 6.10668L2.12189 7.62332ZM8.37387 4.03319C10.7957 3.16381 13.5533 2.72 16.66 2.72V0.719998C13.364 0.719998 10.3723 1.19085 7.69814 2.1508L8.37387 4.03319ZM16.66 2.72C19.1813 2.72 21.3309 2.95977 23.1226 3.42315L23.6234 1.48685C21.6258 0.970222 19.3 0.719998 16.66 0.719998V2.72ZM23.1226 3.42315C24.9256 3.88943 26.3689 4.54552 27.4838 5.36705L28.6702 3.75694C27.3025 2.74914 25.6098 2.00057 23.6234 1.48685L23.1226 3.42315ZM27.5078 5.38419C28.66 6.18186 29.4875 7.1201 30.0246 8.19421L31.8134 7.29979C31.1092 5.89123 30.042 4.70613 28.6462 3.7398L27.5078 5.38419ZM30.0294 8.2038C30.5717 9.25976 30.85 10.4406 30.85 11.765H32.85C32.85 10.1494 32.5077 8.65157 31.8086 7.2902L30.0294 8.2038ZM30.85 11.765C30.85 13.1391 30.6515 14.3445 30.2724 15.3944L32.1536 16.0736C32.6238 14.7715 32.85 13.3309 32.85 11.765H30.85ZM30.2756 15.3858C29.8841 16.4397 29.3593 17.3983 28.7013 18.2656L30.2947 19.4744C31.0741 18.447 31.6925 17.315 32.1504 16.0822L30.2756 15.3858ZM28.6881 18.2835C28.0495 19.1653 27.303 19.9733 26.4462 20.7077L27.7478 22.2263C28.7203 21.3927 29.5745 20.4694 30.3079 19.4565L28.6881 18.2835ZM26.4462 20.7077C25.5457 21.4796 24.6125 22.2358 23.6466 22.9764L24.8634 24.5636C25.8575 23.8015 26.819 23.0224 27.7478 22.2263L26.4462 20.7077ZM23.6476 22.9756L11.1526 32.5306L12.3675 34.1194L24.8625 24.5644L23.6476 22.9756ZM11.76 34.325H32.34V32.325H11.76V34.325ZM31.34 33.325V37H33.34V33.325H31.34ZM32.34 36H1.96V38H32.34V36ZM2.96 37V33.08H0.96V37H2.96ZM2.56704 33.8747L20.207 20.3997L18.993 18.8103L1.35296 32.2853L2.56704 33.8747Z" fill="#FF7231"/>
</svg>
