<svg width="36" height="39" viewBox="0 0 36 39" fill="none" xmlns="http://www.w3.org/2000/svg">
<path d="M10.702 6.424L11.0136 7.37427L11.0228 7.37114L10.702 6.424ZM4.92 9.805L4.12 10.405L4.76133 11.2601L5.57189 10.5633L4.92 9.805ZM2.715 6.865L2.06311 6.10668L1.35367 6.71656L1.915 7.465L2.715 6.865ZM9.281 3.092L8.94313 2.1508L8.93926 2.15221L9.281 3.092ZM24.52 2.406L24.2854 3.37808L24.52 2.406ZM29.273 4.317L29.8127 3.47512V3.47512L29.273 4.317ZM32.115 7.208L31.2421 7.69582L31.2475 7.70548L31.2531 7.71502L32.115 7.208ZM31.576 15.979L32.3737 16.5821L32.3806 16.5729L31.576 15.979ZM26.725 19.115L26.4046 18.1677L23.1967 19.2527L26.4794 20.0844L26.725 19.115ZM32.458 22.251L31.7269 22.9333L31.7348 22.9417L31.7428 22.9499L32.458 22.251ZM33.585 31.904L34.4648 32.3795L34.4699 32.3697L33.585 31.904ZM30.498 35.089L31.0388 35.9302L31.0437 35.927L30.498 35.089ZM25.255 37.196L25.494 38.167L25.255 37.196ZM8.791 36.461L8.43738 37.3964L8.44111 37.3978L8.791 36.461ZM1.98 32.345L1.21178 31.7048L0.605453 32.4324L1.29906 33.0773L1.98 32.345ZM4.43 29.405L5.11094 28.6727L4.33771 27.9537L3.66178 28.7648L4.43 29.405ZM10.359 33.178L10.0078 34.1144L10.0208 34.1191L10.359 33.178ZM24.618 32.345L23.9778 31.5767L23.9699 31.5835L24.618 32.345ZM25.108 22.937L24.4523 23.692L24.4581 23.697L24.4639 23.7019L25.108 22.937ZM9.33 21.32H8.33V22.32H9.33V21.32ZM9.33 17.645V16.645H8.33V17.645H9.33ZM23.393 7.061L22.7728 7.84542L22.7784 7.8499L22.7842 7.85431L23.393 7.061ZM17.415 4.395C14.8715 4.395 12.5237 4.75117 10.3812 5.47686L11.0228 7.37114C12.931 6.72483 15.0585 6.395 17.415 6.395V4.395ZM10.3905 5.47377C8.25336 6.17445 6.21304 7.37473 4.26811 9.04668L5.57189 10.5633C7.35097 9.03393 9.1653 7.98021 11.0136 7.37423L10.3905 5.47377ZM5.72 9.205L3.515 6.265L1.915 7.465L4.12 10.405L5.72 9.205ZM3.36689 7.62332C5.1294 6.10817 7.21067 4.90891 9.62274 4.03179L8.93926 2.15221C6.32067 3.10442 4.0246 4.42049 2.06311 6.10668L3.36689 7.62332ZM9.61887 4.03319C12.0407 3.16381 14.7983 2.72 17.905 2.72V0.719998C14.609 0.719998 11.6173 1.19085 8.94314 2.1508L9.61887 4.03319ZM17.905 2.72C20.3628 2.72 22.486 2.94375 24.2854 3.37808L24.7546 1.43392C22.7647 0.953584 20.4778 0.719998 17.905 0.719998V2.72ZM24.2854 3.37808C26.1014 3.81643 27.5756 4.41676 28.7333 5.15888L29.8127 3.47512C28.4224 2.58391 26.728 1.91023 24.7546 1.43392L24.2854 3.37808ZM28.7333 5.15888C29.895 5.90352 30.7156 6.75368 31.2421 7.69582L32.9879 6.72018C32.2731 5.44098 31.199 4.36381 29.8127 3.47512L28.7333 5.15888ZM31.2531 7.71502C31.8171 8.67386 32.095 9.69143 32.095 10.785H34.095C34.095 9.33057 33.7196 7.96347 32.9769 6.70098L31.2531 7.71502ZM32.095 10.785C32.095 12.7112 31.6307 14.2209 30.7714 15.3851L32.3806 16.5729C33.5466 14.9931 34.095 13.0402 34.095 10.785H32.095ZM30.7783 15.3759C29.9259 16.5033 28.5087 17.456 26.4046 18.1677L27.0454 20.0623C29.384 19.2713 31.2008 18.1334 32.3737 16.5821L30.7783 15.3759ZM26.4794 20.0844C28.791 20.67 30.5158 21.6356 31.7269 22.9333L33.1891 21.5687C31.6562 19.9264 29.559 18.8014 26.9706 18.1456L26.4794 20.0844ZM31.7428 22.9499C32.934 24.1688 33.565 25.7964 33.565 27.935H35.565C35.565 25.3696 34.7913 23.2079 33.1732 21.5521L31.7428 22.9499ZM33.565 27.935C33.565 29.1776 33.2777 30.3407 32.7001 31.4383L34.4699 32.3697C35.1989 30.9846 35.565 29.5017 35.565 27.935H33.565ZM32.7053 31.4285C32.147 32.4614 31.2476 33.4075 29.9523 34.251L31.0437 35.927C32.5577 34.9411 33.7164 33.764 34.4647 32.3795L32.7053 31.4285ZM29.9572 34.2478C28.7035 35.0538 27.0664 35.7203 25.016 36.225L25.494 38.167C27.6903 37.6264 29.5485 36.8882 31.0388 35.9302L29.9572 34.2478ZM25.016 36.225C22.9924 36.7231 20.5451 36.98 17.66 36.98V38.98C20.6549 38.98 23.2709 38.7142 25.494 38.167L25.016 36.225ZM17.66 36.98C14.5655 36.98 11.729 36.4909 9.14089 35.5242L8.44111 37.3978C11.2756 38.4565 14.3518 38.98 17.66 38.98V36.98ZM9.14462 35.5256C6.57193 34.553 4.41677 33.2453 2.66094 31.6127L1.29906 33.0773C3.26723 34.9074 5.65273 36.3437 8.43738 37.3964L9.14462 35.5256ZM2.74822 32.9852L5.19822 30.0452L3.66178 28.7648L1.21178 31.7048L2.74822 32.9852ZM3.74906 30.1373C5.69346 31.9453 7.77923 33.2786 10.0079 34.1143L10.7101 32.2417C8.75744 31.5094 6.89054 30.3274 5.11094 28.6727L3.74906 30.1373ZM10.0208 34.1191C12.2305 34.9132 14.6165 35.305 17.17 35.305V33.305C14.8235 33.305 12.6688 32.9455 10.6972 32.2369L10.0208 34.1191ZM17.17 35.305C20.6849 35.305 23.4604 34.6434 25.2661 33.1065L23.9699 31.5835C22.705 32.66 20.5151 33.305 17.17 33.305V35.305ZM25.2582 33.1132C27.0433 31.6256 27.97 29.7156 27.97 27.445H25.97C25.97 29.0944 25.3287 30.4511 23.9778 31.5768L25.2582 33.1132ZM27.97 27.445C27.97 25.2574 27.266 23.4469 25.7521 22.1721L24.4639 23.7019C25.4327 24.5178 25.97 25.7126 25.97 27.445H27.97ZM25.7637 22.182C24.2616 20.8775 22.0661 20.32 19.375 20.32V22.32C21.8452 22.32 23.4718 22.8405 24.4523 23.692L25.7637 22.182ZM19.375 20.32H9.33V22.32H19.375V20.32ZM10.33 21.32V17.645H8.33V21.32H10.33ZM9.33 18.645H18.395V16.645H9.33V18.645ZM18.395 18.645C20.8922 18.645 22.9518 18.0877 24.3913 16.7971C25.8516 15.4879 26.5 13.5824 26.5 11.275H24.5C24.5 13.2142 23.9643 14.4938 23.0562 15.3079C22.1274 16.1407 20.6345 16.645 18.395 16.645V18.645ZM26.5 11.275C26.5 9.22462 25.6465 7.52991 24.0018 6.26769L22.7842 7.85431C23.9488 8.74809 24.5 9.86271 24.5 11.275H26.5ZM24.0132 6.27658C22.3688 4.97636 20.1243 4.395 17.415 4.395V6.395C19.867 6.395 21.6078 6.9243 22.7728 7.84542L24.0132 6.27658Z" fill="#FF7231"/>
</svg>
