<svg width="39" height="37" viewBox="0 0 39 37" fill="none" xmlns="http://www.w3.org/2000/svg">
<path d="M37.26 28.16V29.16H38.26V28.16H37.26ZM33.095 28.16V27.16H32.095V28.16H33.095ZM33.095 36V37H34.095V36H33.095ZM25.99 36H24.99V37H25.99V36ZM25.99 28.16H26.99V27.16H25.99V28.16ZM1.98 28.16H0.98V29.16H1.98V28.16ZM1.98 24.289L1.26828 23.5865L0.98 23.8786V24.289H1.98ZM24.275 1.7V0.699998H23.8569L23.5633 0.997538L24.275 1.7ZM33.095 1.7H34.095V0.699998H33.095V1.7ZM33.095 24.73H32.095V25.73H33.095V24.73ZM37.26 24.73H38.26V23.73H37.26V24.73ZM25.99 24.73V25.73H26.99V24.73H25.99ZM25.99 8.07H26.99V7.07H25.99V8.07ZM25.5 8.07V7.07H25.0814L24.7877 7.36815L25.5 8.07ZM9.085 24.73L8.37268 24.0281L6.69585 25.73H9.085V24.73ZM37.26 27.16H33.095V29.16H37.26V27.16ZM32.095 28.16V36H34.095V28.16H32.095ZM33.095 35H25.99V37H33.095V35ZM26.99 36V28.16H24.99V36H26.99ZM25.99 27.16H1.98V29.16H25.99V27.16ZM2.98 28.16V24.289H0.98V28.16H2.98ZM2.69172 24.9915L24.9867 2.40246L23.5633 0.997538L1.26828 23.5865L2.69172 24.9915ZM24.275 2.7H33.095V0.699998H24.275V2.7ZM32.095 1.7V24.73H34.095V1.7H32.095ZM33.095 25.73H37.26V23.73H33.095V25.73ZM36.26 24.73V28.16H38.26V24.73H36.26ZM26.99 24.73V8.07H24.99V24.73H26.99ZM25.99 7.07H25.5V9.07H25.99V7.07ZM24.7877 7.36815L8.37268 24.0281L9.79733 25.4319L26.2123 8.77185L24.7877 7.36815ZM9.085 25.73H25.99V23.73H9.085V25.73Z" fill="#FF7231"/>
</svg>
