<svg width="225" height="48" viewBox="0 0 225 48" fill="none" xmlns="http://www.w3.org/2000/svg">
<path fill-rule="evenodd" clip-rule="evenodd" d="M22.726 19.7268L22.8965 19.9638C23.4454 20.7271 24.014 21.509 24.5821 22.2623L25.2753 23.1814L21.3457 23.1334C20.3943 23.1344 19.4932 23.574 18.9191 24.3245L18.9184 24.3254L13.9756 30.7599C13.742 31.0775 13.4118 31.2767 13.0709 31.3734L13.0676 31.3744L4.79256 33.6152C4.79202 33.6153 4.79148 33.6155 4.79095 33.6156C3.97763 33.8422 3.41806 34.5707 3.4081 35.4048V38.3869C3.41797 39.4034 4.24432 40.2195 5.26131 40.223C5.82052 37.5007 8.06751 35.4057 10.8734 35.0663L10.8743 35.0662L10.8751 35.0661C14.2761 34.6646 17.396 36.9293 18.0613 40.2229H26.2161V40.23H30.3868L30.2997 40.8714L30.2997 40.8715L30.2996 40.8724L30.299 40.8769C30.2984 40.881 30.2976 40.8874 30.2965 40.8959C30.2943 40.9129 30.2911 40.9381 30.2873 40.9702C30.2796 41.0345 30.2693 41.1255 30.2589 41.2315C30.2379 41.4469 30.2183 41.7105 30.2183 41.9343C30.2183 42.1349 30.2513 42.3774 30.289 42.584C30.3073 42.6842 30.3256 42.77 30.3392 42.8304C30.346 42.8604 30.3516 42.8839 30.3553 42.8994C30.3572 42.9071 30.3586 42.9128 30.3595 42.9163L30.3604 42.92L30.3605 42.9202L30.541 43.6253H26.2161V43.6295H17.8382C17.14 45.6499 15.4626 47.2062 13.3725 47.7743L13.3713 47.7746L13.37 47.775C10.0312 48.6661 6.59677 46.8341 5.49396 43.6295H5.30022C2.38975 43.6295 0.0127893 41.2973 5.48949e-06 38.4033L0 38.402V35.4001L8.15271e-06 35.3986C0.0127584 33.0312 1.59497 30.9622 3.89645 30.34L3.89671 30.3399L11.6085 28.2516L16.1883 22.2584L16.189 22.2575C17.4132 20.6699 19.3239 19.7268 21.3376 19.7268H22.726ZM8.54874 41.5244C8.54874 43.2264 9.94633 44.6141 11.6605 44.6141C13.3849 44.6141 14.7722 43.2276 14.7722 41.5244C14.7722 39.8224 13.3746 38.4347 11.6605 38.4347C9.94633 38.4347 8.54874 39.8224 8.54874 41.5244Z" fill="#222731"/>
<path fill-rule="evenodd" clip-rule="evenodd" d="M29.3396 5.16845C29.0321 5.30448 28.7481 5.45266 28.4886 5.61239C27.1667 6.42595 26.3062 7.61589 26.3062 9.82889C26.3062 12.3507 27.453 15.5202 29.4076 18.0689C31.3993 20.6662 33.6677 21.9313 35.5231 21.9313C37.3784 21.9313 39.6468 20.6662 41.6385 18.069C43.593 15.5202 44.7398 12.3507 44.7398 9.82889C44.7398 7.61587 43.8793 6.42593 42.5575 5.61238C42.298 5.45265 42.0139 5.30447 41.7065 5.16844C41.3846 5.78789 40.7338 6.21142 39.9834 6.21142H39.3964C38.3262 6.21142 37.4586 5.35003 37.4586 4.28744V1.92404C37.4586 0.861448 38.3262 4.88752e-05 39.3964 4.88752e-05H39.9834C40.9451 4.88752e-05 41.7432 0.695705 41.8951 1.60787C45.5797 2.8116 48.1593 5.34421 48.1593 9.82889C48.1593 16.0395 43.2121 23.8441 37.2342 25.1403C37.2458 26.1692 37.3237 26.7344 37.4418 27.0662C37.5187 27.2824 37.5762 27.3395 37.7745 27.4227C38.1166 27.5664 38.7462 27.6837 39.9704 27.7355C40.9307 27.7762 42.1053 27.7744 43.5947 27.7722L43.5975 27.7722C43.9578 27.7717 44.3365 27.7711 44.735 27.7711C49.8276 27.7711 52.8229 31.7644 52.9925 35.6373C53.0783 37.5956 52.4589 39.6287 50.9605 41.1783C49.7652 42.4144 48.111 43.2405 46.0608 43.5331C45.2092 46.1139 42.7638 47.9779 39.8799 47.9779C36.2885 47.9779 33.3771 45.0871 33.3771 41.5212C33.3771 37.9552 36.2885 35.0644 39.8799 35.0644C42.9623 35.0644 45.5438 37.1939 46.2136 40.052C47.2642 39.7999 47.9973 39.3404 48.4938 38.8269C49.2589 38.0356 49.6272 36.9476 49.5763 35.7848C49.4725 33.4153 47.6973 31.1664 44.735 31.1664C44.3602 31.1664 43.9975 31.1669 43.647 31.1675H43.6393C42.1419 31.1699 40.8679 31.1719 39.8246 31.1277C38.5664 31.0744 37.3964 30.9504 36.4424 30.5498C35.3445 30.0887 34.6093 29.2984 34.2175 28.197C33.9026 27.3117 33.8244 26.2593 33.8144 25.1408C27.8354 23.8463 22.8867 16.0403 22.8867 9.82889C22.8867 5.34424 25.4664 2.81162 29.151 1.60789C29.3028 0.695691 30.1009 0 31.0626 0H31.6497C32.7199 0 33.5874 0.861397 33.5874 1.92399V4.28739C33.5874 5.34997 32.7199 6.21137 31.6497 6.21137H31.0626C30.3123 6.21137 29.6615 5.78787 29.3396 5.16845ZM39.8799 44.5826C41.5827 44.5826 42.9632 43.212 42.9632 41.5212C42.9632 39.8304 41.5827 38.4597 39.8799 38.4597C38.177 38.4597 36.7966 39.8304 36.7966 41.5212C36.7966 43.212 38.177 44.5826 39.8799 44.5826Z" fill="#FF7231"/>
<path d="M127.206 21.4836C130.496 21.4836 133.012 22.0827 134.755 23.2809C136.519 24.4792 137.402 26.3527 137.402 28.9017C137.402 30.2306 137.162 31.3744 136.683 32.333C136.225 33.2698 135.55 34.0432 134.657 34.6532C133.763 35.2414 132.674 35.6771 131.389 35.9603C130.103 36.2436 128.633 36.3852 126.977 36.3852H124.918V44.3588H120.801V22.0391C121.759 21.8213 122.816 21.6797 123.971 21.6143C125.147 21.5272 126.225 21.4836 127.206 21.4836ZM127.5 25.0456C126.454 25.0456 125.594 25.0783 124.918 25.1436V32.8558H126.912C128.894 32.8558 130.419 32.5835 131.487 32.0389C132.554 31.4724 133.088 30.4158 133.088 28.869C133.088 28.1283 132.946 27.5074 132.663 27.0063C132.38 26.5053 131.988 26.1131 131.487 25.8299C130.986 25.5467 130.387 25.3506 129.689 25.2417C129.014 25.111 128.284 25.0456 127.5 25.0456Z" fill="#222731"/>
<path d="M150.703 30.8298C150.377 30.7208 149.919 30.6119 149.331 30.503C148.765 30.3723 148.1 30.3069 147.338 30.3069C146.902 30.3069 146.433 30.3505 145.932 30.4376C145.453 30.5248 145.115 30.601 144.919 30.6664V44.3588H140.965V28.0847C141.728 27.8015 142.675 27.5401 143.808 27.3004C144.963 27.039 146.237 26.9083 147.632 26.9083C147.893 26.9083 148.198 26.9301 148.547 26.9736C148.895 26.9954 149.244 27.039 149.592 27.1044C149.941 27.1479 150.279 27.2133 150.605 27.3004C150.932 27.3658 151.194 27.4312 151.39 27.4965L150.703 30.8298Z" fill="#222731"/>
<path d="M160.158 41.5811C161.378 41.5811 162.304 41.5158 162.936 41.385V37.0061C162.718 36.9407 162.402 36.8754 161.988 36.81C161.574 36.7446 161.117 36.712 160.616 36.712C160.18 36.712 159.733 36.7446 159.276 36.81C158.84 36.8754 158.437 36.9952 158.067 37.1695C157.718 37.3437 157.435 37.5943 157.217 37.9211C156.999 38.2261 156.89 38.6182 156.89 39.0975C156.89 40.0343 157.184 40.6879 157.773 41.0583C158.361 41.4068 159.156 41.5811 160.158 41.5811ZM159.831 26.8429C161.139 26.8429 162.239 27.0063 163.132 27.3331C164.025 27.6599 164.733 28.1174 165.256 28.7056C165.801 29.2938 166.182 30.0128 166.4 30.8624C166.639 31.6903 166.759 32.6053 166.759 33.6075V43.9667C166.149 44.0974 165.223 44.2499 163.982 44.4242C162.762 44.6202 161.378 44.7183 159.831 44.7183C158.807 44.7183 157.871 44.6202 157.021 44.4242C156.171 44.2281 155.442 43.9122 154.832 43.4765C154.243 43.0408 153.775 42.4743 153.426 41.7772C153.1 41.08 152.936 40.2195 152.936 39.1956C152.936 38.2152 153.121 37.3873 153.492 36.712C153.884 36.0366 154.407 35.4919 155.06 35.078C155.714 34.6423 156.465 34.3373 157.315 34.163C158.187 33.9669 159.091 33.8689 160.027 33.8689C160.463 33.8689 160.921 33.9016 161.4 33.9669C161.879 34.0105 162.391 34.0976 162.936 34.2284V33.5748C162.936 33.1173 162.881 32.6816 162.772 32.2676C162.664 31.8537 162.467 31.4942 162.184 31.1892C161.923 30.8624 161.563 30.6119 161.106 30.4376C160.67 30.2633 160.115 30.1762 159.439 30.1762C158.524 30.1762 157.685 30.2415 156.923 30.3723C156.16 30.503 155.54 30.6555 155.06 30.8298L154.57 27.6272C155.071 27.4529 155.801 27.2787 156.76 27.1044C157.718 26.9301 158.742 26.8429 159.831 26.8429Z" fill="#222731"/>
<path d="M175.556 33.9343C176.057 33.4114 176.591 32.8558 177.157 32.2676C177.723 31.6576 178.279 31.0585 178.824 30.4703C179.368 29.8603 179.88 29.283 180.36 28.7383C180.861 28.1719 181.285 27.6817 181.634 27.2678H186.307C185.218 28.4878 184.063 29.7514 182.843 31.0585C181.645 32.3657 180.436 33.6401 179.216 34.8819C179.869 35.4266 180.556 36.0911 181.275 36.8754C181.994 37.6379 182.691 38.4548 183.366 39.3263C184.041 40.1977 184.673 41.0691 185.261 41.9406C185.85 42.812 186.34 43.6181 186.732 44.3588H182.157C181.765 43.6835 181.307 42.9754 180.784 42.2347C180.283 41.494 179.739 40.775 179.15 40.0779C178.562 39.3807 177.963 38.7272 177.353 38.1171C176.743 37.4854 176.144 36.9516 175.556 36.5159V44.3588H171.602V19.6536L175.556 19V33.9343Z" fill="#222731"/>
<path d="M189.404 22.7581L193.359 22.1045V27.2678H199.437V30.5683H193.359V37.5289C193.359 38.9014 193.576 39.8818 194.012 40.47C194.448 41.0583 195.189 41.3524 196.234 41.3524C196.953 41.3524 197.585 41.2761 198.13 41.1236C198.696 40.9711 199.143 40.8295 199.47 40.6988L200.123 43.836C199.666 44.032 199.067 44.2281 198.326 44.4242C197.585 44.642 196.714 44.751 195.712 44.751C194.492 44.751 193.468 44.5876 192.64 44.2608C191.834 43.934 191.191 43.4656 190.712 42.8556C190.232 42.2238 189.895 41.4722 189.699 40.6007C189.503 39.7075 189.404 38.6945 189.404 37.5616V22.7581Z" fill="#222731"/>
<path d="M207.246 44.3588H203.292V27.2678H207.246V44.3588ZM207.671 22.2679C207.671 23.0086 207.431 23.5968 206.952 24.0325C206.473 24.4683 205.906 24.6861 205.253 24.6861C204.577 24.6861 204 24.4683 203.521 24.0325C203.041 23.5968 202.802 23.0086 202.802 22.2679C202.802 21.5054 203.041 20.9063 203.521 20.4706C204 20.0348 204.577 19.817 205.253 19.817C205.906 19.817 206.473 20.0348 206.952 20.4706C207.431 20.9063 207.671 21.5054 207.671 22.2679Z" fill="#222731"/>
<path d="M211.343 35.8296C211.343 34.566 211.539 33.3896 211.931 32.3003C212.323 31.1892 212.879 30.2306 213.598 29.4246C214.339 28.6185 215.232 27.9867 216.278 27.5292C217.323 27.0717 218.5 26.8429 219.807 26.8429C221.419 26.8429 222.944 27.137 224.382 27.7253L223.532 30.9605C223.075 30.7644 222.552 30.601 221.964 30.4703C221.397 30.3396 220.787 30.2742 220.134 30.2742C218.587 30.2742 217.41 30.7644 216.604 31.7448C215.798 32.7033 215.395 34.065 215.395 35.8296C215.395 37.5289 215.776 38.8797 216.539 39.8818C217.301 40.8622 218.587 41.3524 220.395 41.3524C221.07 41.3524 221.735 41.287 222.388 41.1563C223.042 41.0256 223.608 40.8622 224.088 40.6661L224.643 43.934C224.208 44.1518 223.543 44.3479 222.65 44.5222C221.778 44.6965 220.874 44.7836 219.938 44.7836C218.478 44.7836 217.203 44.5658 216.114 44.1301C215.047 43.6726 214.153 43.0517 213.434 42.2674C212.737 41.4613 212.214 40.5136 211.866 39.4243C211.517 38.3132 211.343 37.115 211.343 35.8296Z" fill="#222731"/>
<path d="M78.9147 44.8491C77.2154 44.8491 75.6904 44.5877 74.3397 44.0648C72.989 43.5419 71.8452 42.7794 70.9084 41.7773C69.9716 40.7533 69.2527 39.5115 68.7516 38.0519C68.2505 36.5922 68 34.9147 68 33.0193C68 31.124 68.2832 29.4464 68.8497 27.9868C69.4379 26.5271 70.2331 25.2962 71.2352 24.2941C72.2374 23.2701 73.4138 22.4967 74.7645 21.9739C76.1153 21.451 77.564 21.1896 79.1108 21.1896C80.0476 21.1896 80.8973 21.2658 81.6598 21.4183C82.4223 21.549 83.0868 21.7015 83.6532 21.8758C84.2196 22.0501 84.688 22.2353 85.0584 22.4314C85.4287 22.6274 85.6902 22.7691 85.8427 22.8562L84.6336 26.2221C84.1107 25.8953 83.3591 25.5903 82.3787 25.3071C81.4201 25.0021 80.3744 24.8496 79.2415 24.8496C78.2612 24.8496 77.3462 25.0239 76.4965 25.3725C75.6469 25.6993 74.9061 26.2003 74.2743 26.8757C73.6643 27.5511 73.1851 28.4007 72.8365 29.4247C72.4879 30.4486 72.3136 31.6359 72.3136 32.9867C72.3136 34.1849 72.4443 35.2851 72.7058 36.2872C72.989 37.2894 73.4138 38.1608 73.9802 38.9015C74.5467 39.6205 75.2656 40.1869 76.137 40.6008C77.0085 40.993 78.0542 41.1891 79.2742 41.1891C80.7339 41.1891 81.9212 41.0474 82.8362 40.7642C83.7512 40.4592 84.4593 40.176 84.9603 39.9146L86.0714 43.2805C85.81 43.4548 85.4505 43.6291 84.993 43.8034C84.5573 43.9777 84.0344 44.1519 83.4244 44.3262C82.8144 44.4787 82.1282 44.5986 81.3657 44.6857C80.6032 44.7946 79.7862 44.8491 78.9147 44.8491Z" fill="#FF7231"/>
<path d="M95.5057 41.5812C96.7257 41.5812 97.6516 41.5158 98.2834 41.3851V37.0062C98.0655 36.9408 97.7496 36.8754 97.3357 36.8101C96.9218 36.7447 96.4642 36.712 95.9632 36.712C95.5275 36.712 95.0808 36.7447 94.6233 36.8101C94.1876 36.8754 93.7846 36.9953 93.4142 37.1696C93.0656 37.3438 92.7824 37.5944 92.5646 37.9212C92.3467 38.2262 92.2378 38.6183 92.2378 39.0976C92.2378 40.0344 92.5319 40.688 93.1201 41.0583C93.7083 41.4069 94.5035 41.5812 95.5057 41.5812ZM95.1789 26.843C96.486 26.843 97.5862 27.0064 98.4794 27.3332C99.3727 27.66 100.081 28.1175 100.604 28.7057C101.148 29.2939 101.529 30.0129 101.747 30.8625C101.987 31.6904 102.107 32.6054 102.107 33.6076V43.9668C101.497 44.0975 100.571 44.25 99.3291 44.4243C98.1091 44.6203 96.7257 44.7184 95.1789 44.7184C94.1549 44.7184 93.2181 44.6203 92.3685 44.4243C91.5188 44.2282 90.789 43.9123 90.179 43.4766C89.5908 43.0409 89.1224 42.4744 88.7738 41.7773C88.447 41.0801 88.2836 40.2196 88.2836 39.1956C88.2836 38.2153 88.4688 37.3874 88.8392 36.712C89.2313 36.0367 89.7542 35.492 90.4078 35.0781C91.0613 34.6424 91.813 34.3374 92.6626 34.1631C93.534 33.967 94.4382 33.869 95.375 33.869C95.8107 33.869 96.2682 33.9017 96.7475 33.967C97.2268 34.0106 97.7387 34.0977 98.2834 34.2285V33.5749C98.2834 33.1174 98.2289 32.6817 98.12 32.2677C98.011 31.8538 97.815 31.4943 97.5318 31.1893C97.2703 30.8625 96.9109 30.612 96.4534 30.4377C96.0176 30.2634 95.4621 30.1763 94.7867 30.1763C93.8717 30.1763 93.033 30.2416 92.2705 30.3723C91.5079 30.5031 90.8871 30.6556 90.4078 30.8298L89.9176 27.6273C90.4187 27.453 91.1485 27.2787 92.1071 27.1045C93.0656 26.9302 94.0896 26.843 95.1789 26.843Z" fill="#FF7231"/>
<path d="M116.687 30.8298C116.361 30.7209 115.903 30.612 115.315 30.5031C114.749 30.3723 114.084 30.307 113.322 30.307C112.886 30.307 112.417 30.3506 111.916 30.4377C111.437 30.5248 111.099 30.6011 110.903 30.6665V44.3589H106.949V28.0848C107.712 27.8016 108.659 27.5402 109.792 27.3005C110.947 27.0391 112.221 26.9084 113.616 26.9084C113.877 26.9084 114.182 26.9302 114.531 26.9737C114.879 26.9955 115.228 27.0391 115.576 27.1045C115.925 27.148 116.263 27.2134 116.589 27.3005C116.916 27.3659 117.178 27.4312 117.374 27.4966L116.687 30.8298Z" fill="#FF7231"/>
</svg>
